<svg xmlns="http://www.w3.org/2000/svg" width="960" height="692" viewBox="0 0 960 692">
<rect width="100%" height="100%" fill="#fafafa"/>
<text x="24" y="22" font-family="sans-serif" font-size="16" font-weight="700">Scaled Official Step vs Zone MPC AB Test</text>
<text x="760" y="22" font-family="sans-serif" font-size="12" fill="#555">scaled official step black, Zone MPC color</text>
<line x1="72" y1="212" x2="936" y2="212" stroke="#ddd"/>
<line x1="72" y1="32" x2="72" y2="212" stroke="#ddd"/>
<text x="18" y="48" font-family="sans-serif" font-size="13" font-weight="700">Temperature C</text>
<text x="24" y="212" font-family="sans-serif" font-size="11" fill="#777">51</text>
<text x="24" y="42" font-family="sans-serif" font-size="11" fill="#777">64</text>
<polyline fill="none" stroke="#111827" stroke-width="2" points="72.0,124.8 74.9,124.8 77.8,124.8 80.6,132.4 83.5,124.8 86.4,124.8 89.3,117.2 92.1,117.2 95.0,124.8 97.9,124.8 100.8,117.2 103.6,117.2 106.5,124.8 109.4,132.4 112.3,124.8 115.1,124.8 118.0,124.8 120.9,132.4 123.8,140.0 126.6,124.8 129.5,124.8 132.4,132.4 135.3,124.8 138.1,132.4 141.0,132.4 143.9,132.4 146.8,124.8 149.7,147.6 152.5,140.0 152.5,140.0 155.4,147.6 158.2,140.0 161.1,155.2 164.0,162.8 166.9,155.2 169.7,155.2 172.6,147.6 175.5,147.6 178.4,155.2 181.3,162.8 182.7,155.2 182.7,155.2 185.6,109.5 188.4,101.9 191.3,86.7 194.2,94.3 197.1,79.1 199.9,79.1 202.8,71.5 205.7,71.5 208.6,79.1 211.5,71.5 214.3,79.1 217.2,71.5 218.6,63.8 218.7,79.1 221.6,94.3 224.5,109.5 227.4,109.5 230.2,109.5 233.1,109.5 236.0,117.2 238.9,117.2 241.7,109.5 244.6,109.5 247.5,117.2 250.4,124.8 253.3,124.8 256.1,117.2 256.3,117.2 259.1,140.0 262.0,140.0 264.9,147.6 267.8,132.4 270.6,155.2 273.5,162.8 276.4,147.6 279.3,162.8 282.1,147.6 285.0,155.2 287.9,162.8 290.8,140.0 293.7,147.6 296.5,147.6 299.4,140.0 302.3,155.2 305.2,147.6 308.0,147.6 310.9,155.2 313.8,147.6 316.7,155.2 319.5,170.5 322.4,155.2 323.8,147.6 323.8,147.6 326.7,155.2 329.6,155.2 332.4,162.8 335.3,162.8 338.2,155.2 341.1,155.2 344.0,155.2 346.8,162.8 349.7,162.8 352.6,178.1 355.5,155.2 358.3,178.1 361.2,170.5 362.6,162.8 362.6,162.8 365.5,117.2 368.4,94.3 371.3,86.7 374.1,94.3 377.0,86.7 379.9,86.7 382.8,79.1 385.6,79.1 388.5,79.1 391.4,79.1 392.8,79.1 393.0,94.3 395.9,124.8 398.8,109.5 401.7,124.8 404.5,124.8 407.4,140.0 410.3,124.8 413.2,124.8 416.0,132.4 418.9,140.0 421.8,117.2 424.7,132.4 427.5,147.6 429.0,132.4 429.0,147.6 431.9,101.9 434.8,86.7 437.7,79.1 440.6,86.7 443.4,86.7 446.3,86.7 449.2,79.1 452.1,79.1 454.9,79.1 457.8,63.8 460.7,71.5 463.6,63.8 466.4,63.8 469.3,79.1 472.2,71.5 475.1,71.5 478.0,71.5 480.8,63.8 483.7,71.5 486.6,71.5 489.5,63.8 492.4,71.5 495.2,71.5 498.1,71.5 501.0,63.8 503.9,79.1 506.7,71.5 509.6,71.5 512.5,63.8 515.3,71.5 515.5,86.7 518.4,101.9 521.2,109.5 524.1,101.9 527.0,101.9 529.9,109.5 532.7,101.9 535.6,109.5 538.5,109.5 541.4,117.2 544.2,101.9 547.1,124.8 550.0,117.2 552.9,132.4 555.7,109.5 558.6,109.5 561.5,117.2 564.4,117.2 567.2,117.2 570.1,109.5 573.0,117.2 575.8,117.2 575.9,124.8 578.8,94.3 581.7,94.3 584.5,101.9 587.4,79.1 590.3,79.1 593.2,79.1 596.0,79.1 598.9,79.1 601.8,71.5 604.7,79.1 607.6,86.7 610.4,79.1 613.3,71.5 616.2,63.8 619.1,63.8 621.9,71.5 624.8,63.8 627.7,94.3 630.6,71.5 633.5,86.7 636.3,79.1 639.2,71.5 642.1,79.1 645.0,86.7 647.9,71.5 650.7,63.8 653.6,63.8 656.5,71.5 657.8,71.5 658.0,71.5 660.9,86.7 663.7,79.1 666.6,86.7 669.5,94.3 672.4,109.5 675.2,86.7 678.1,94.3 681.0,79.1 683.9,86.7 686.7,101.9 689.6,86.7 692.5,94.3 695.4,86.7 698.3,94.3 701.1,94.3 704.0,86.7 706.9,86.7 709.7,94.3 709.8,94.3 712.7,109.5 715.6,109.5 718.4,101.9 721.3,109.5 724.2,117.2 727.1,109.5 730.0,117.2 732.8,117.2 735.7,109.5 738.6,124.8 741.5,117.2 744.3,132.4 747.2,117.2 750.1,117.2 753.0,117.2 754.4,124.8 754.5,117.2 757.4,140.0 760.2,140.0 763.1,155.2 766.0,147.6 768.9,162.8 771.7,162.8 774.6,155.2 777.5,147.6 780.4,162.8 783.2,162.8 786.1,147.6 789.0,147.6 791.9,162.8 794.8,162.8 797.6,155.2 800.5,162.8 803.4,155.2 806.2,162.8 806.2,162.8 809.1,155.2 812.0,170.5 814.9,170.5 817.7,155.2 820.6,162.8 823.5,155.2 826.4,162.8 829.2,162.8 832.1,162.8 835.0,170.5 837.9,162.8 840.7,162.8 843.6,178.1 846.5,162.8 849.4,170.5 852.3,162.8 855.1,162.8 858.0,162.8 860.9,162.8 863.8,170.5 866.6,170.5 869.5,185.7 872.4,178.1 875.2,178.1 875.2,178.1 878.1,117.2 881.0,109.5 883.9,101.9 886.7,94.3 889.6,101.9 892.5,109.5 895.4,94.3 898.3,94.3 901.1,94.3 904.0,86.7 906.9,94.3 909.8,94.3 912.6,94.3 915.5,86.7 918.4,79.1 921.2,71.5 921.4,86.7 924.3,86.7 927.2,79.1 930.1,101.9 933.0,86.7 935.8,94.3"/>
<polyline fill="none" stroke="#c2410c" stroke-width="2" points="72.0,132.4 74.9,132.4 77.8,147.6 80.6,147.6 83.5,140.0 86.4,162.8 89.3,170.5 92.1,140.0 95.0,155.2 97.9,155.2 100.8,140.0 103.6,140.0 106.5,155.2 109.4,147.6 112.3,147.6 115.2,147.6 118.0,155.2 120.9,155.2 123.8,147.6 126.7,147.6 129.5,155.2 132.4,155.2 135.3,147.6 138.2,155.2 141.0,155.2 143.9,147.6 146.8,155.2 149.7,147.6 152.5,140.0 152.5,140.0 155.4,140.0 158.3,140.0 161.1,147.6 164.0,147.6 166.9,140.0 169.8,147.6 172.6,140.0 175.5,147.6 178.4,140.0 181.3,140.0 182.7,147.6 182.7,147.6 185.6,86.7 188.4,94.3 191.3,94.3 194.2,71.5 197.1,71.5 200.0,63.8 202.9,79.1 205.7,71.5 208.6,56.2 211.5,56.2 214.4,63.8 217.3,56.2 218.6,63.8 218.9,71.5 221.8,86.7 224.6,101.9 227.5,109.5 230.4,117.2 233.3,101.9 236.2,117.2 239.0,124.8 241.9,124.8 244.8,124.8 247.7,124.8 250.6,117.2 253.4,140.0 256.2,124.8 256.4,124.8 259.3,132.4 262.2,132.4 265.0,132.4 267.9,140.0 270.8,140.0 273.7,140.0 276.5,132.4 279.4,140.0 282.3,147.6 285.2,140.0 288.1,140.0 290.9,140.0 293.8,147.6 296.7,147.6 299.6,140.0 302.4,155.2 305.3,140.0 308.2,147.6 311.1,140.0 314.0,140.0 316.8,140.0 319.7,140.0 322.6,140.0 324.0,140.0 324.0,140.0 326.8,132.4 329.7,140.0 332.6,140.0 335.5,140.0 338.3,147.6 341.2,132.4 344.1,147.6 347.0,147.6 349.9,132.4 352.7,147.6 355.6,147.6 358.5,132.4 361.4,140.0 362.8,147.6 362.8,147.6 365.7,94.3 368.5,86.7 371.4,71.5 374.3,63.8 377.2,63.8 380.1,63.8 383.0,71.5 385.9,63.8 388.7,56.2 391.6,63.8 393.0,63.8 393.1,71.5 396.0,94.3 398.9,101.9 401.8,101.9 404.7,101.9 407.5,109.5 410.4,109.5 413.3,94.3 416.2,109.5 419.1,101.9 421.9,117.2 424.8,109.5 427.7,109.5 429.1,109.5 429.2,117.2 432.1,86.7 435.0,79.1 437.8,86.7 440.7,79.1 443.6,71.5 446.5,71.5 449.4,56.2 452.2,79.1 455.1,71.5 458.0,79.1 460.9,71.5 463.8,71.5 466.6,71.5 469.5,71.5 472.4,56.2 475.3,63.8 478.2,56.2 481.0,71.5 483.9,94.3 486.8,56.2 489.7,71.5 492.5,71.5 495.4,71.5 498.3,79.1 501.2,63.8 504.1,79.1 506.9,71.5 509.8,71.5 512.7,79.1 515.4,79.1 515.6,86.7 518.5,109.5 521.4,109.5 524.3,109.5 527.1,124.8 530.0,117.2 532.9,124.8 535.8,124.8 538.7,140.0 541.5,124.8 544.4,117.2 547.3,124.8 550.2,132.4 553.1,124.8 555.9,132.4 558.8,132.4 561.7,117.2 564.6,124.8 567.4,124.8 570.3,124.8 573.2,124.8 576.0,124.8 576.1,132.4 579.0,101.9 581.9,94.3 584.7,86.7 587.6,79.1 590.5,86.7 593.4,71.5 596.3,71.5 599.1,79.1 602.0,79.1 604.9,79.1 607.8,79.1 610.7,71.5 613.6,71.5 616.5,56.2 619.4,56.2 622.2,79.1 625.1,71.5 628.0,71.5 630.9,71.5 633.8,86.7 636.7,63.8 639.5,71.5 642.4,71.5 645.3,71.5 648.2,63.8 651.1,86.7 654.0,79.1 656.9,71.5 658.0,71.5 658.1,86.7 661.0,86.7 663.9,101.9 666.8,86.7 669.6,94.3 672.5,101.9 675.4,94.3 678.3,94.3 681.2,101.9 684.0,94.3 686.9,86.7 689.8,101.9 692.7,94.3 695.5,109.5 698.4,109.5 701.3,109.5 704.2,117.2 707.1,109.5 709.9,124.8 709.9,117.2 712.8,140.0 715.7,140.0 718.6,147.6 721.5,140.0 724.3,140.0 727.2,132.4 730.1,117.2 733.0,140.0 735.8,140.0 738.7,140.0 741.6,140.0 744.5,140.0 747.4,124.8 750.2,140.0 753.1,140.0 754.5,132.4 754.6,140.0 757.5,140.0 760.4,140.0 763.3,155.2 766.2,147.6 769.0,155.2 771.9,147.6 774.8,162.8 777.7,162.8 780.5,170.5 783.4,162.8 786.3,140.0 789.2,162.8 792.1,155.2 794.9,155.2 797.8,162.8 800.7,155.2 803.6,170.5 806.4,170.5 806.4,147.6 809.3,170.5 812.2,155.2 815.0,162.8 817.9,155.2 820.8,155.2 823.7,155.2 826.5,170.5 829.4,162.8 832.3,178.1 835.2,162.8 838.0,147.6 840.9,155.2 843.8,155.2 846.7,155.2 849.6,147.6 852.4,155.2 855.3,155.2 858.2,155.2 861.1,162.8 863.9,162.8 866.8,147.6 869.7,147.6 872.6,155.2 875.4,155.2 875.4,155.2 878.3,117.2 881.2,94.3 884.0,94.3 886.9,86.7 889.8,71.5 892.7,94.3 895.6,71.5 898.5,79.1 901.3,71.5 904.2,79.1 907.1,79.1 910.0,71.5 912.9,71.5 915.8,79.1 918.6,79.1 921.4,71.5 921.6,79.1 924.5,71.5 927.4,63.8 930.3,79.1 933.2,71.5 936.0,79.1"/>
<line x1="72" y1="434" x2="936" y2="434" stroke="#ddd"/>
<line x1="72" y1="254" x2="72" y2="434" stroke="#ddd"/>
<text x="18" y="270" font-family="sans-serif" font-size="13" font-weight="700">PWM</text>
<text x="24" y="434" font-family="sans-serif" font-size="11" fill="#777">0</text>
<text x="24" y="264" font-family="sans-serif" font-size="11" fill="#777">255</text>
<polyline fill="none" stroke="#111827" stroke-width="2" points="72.0,332.4 74.9,332.4 77.8,332.4 80.6,332.4 83.5,332.4 86.4,332.4 89.3,332.4 92.1,332.4 95.0,332.4 97.9,332.4 100.8,332.4 103.6,332.4 106.5,332.4 109.4,332.4 112.3,332.4 115.1,332.4 118.0,332.4 120.9,332.4 123.8,332.4 126.6,332.4 129.5,332.4 132.4,332.4 135.3,332.4 138.1,332.4 141.0,332.4 143.9,332.4 146.8,332.4 149.7,332.4 152.5,332.4 152.5,332.4 155.4,332.4 158.2,332.4 161.1,332.4 164.0,332.4 166.9,332.4 169.7,332.4 172.6,332.4 175.5,332.4 178.4,332.4 181.3,332.4 182.7,332.4 182.7,332.4 185.6,332.4 188.4,332.4 191.3,314.7 194.2,314.7 197.1,314.7 199.9,314.7 202.8,314.7 205.7,314.7 208.6,314.7 211.5,314.7 214.3,314.7 217.2,314.7 218.6,314.7 218.7,314.7 221.6,314.7 224.5,314.7 227.4,314.7 230.2,314.7 233.1,314.7 236.0,314.7 238.9,314.7 241.7,314.7 244.6,314.7 247.5,314.7 250.4,314.7 253.3,314.7 256.1,314.7 256.3,314.7 259.1,314.7 262.0,314.7 264.9,314.7 267.8,314.7 270.6,314.7 273.5,332.4 276.4,332.4 279.3,332.4 282.1,332.4 285.0,332.4 287.9,332.4 290.8,332.4 293.7,332.4 296.5,332.4 299.4,332.4 302.3,332.4 305.2,332.4 308.0,332.4 310.9,332.4 313.8,332.4 316.7,332.4 319.5,332.4 322.4,332.4 323.8,332.4 323.8,332.4 326.7,332.4 329.6,332.4 332.4,332.4 335.3,332.4 338.2,332.4 341.1,332.4 344.0,332.4 346.8,332.4 349.7,332.4 352.6,332.4 355.5,332.4 358.3,332.4 361.2,332.4 362.6,332.4 362.6,332.4 365.5,332.4 368.4,332.4 371.3,314.7 374.1,314.7 377.0,314.7 379.9,314.7 382.8,314.7 385.6,314.7 388.5,314.7 391.4,314.7 392.8,314.7 393.0,314.7 395.9,314.7 398.8,314.7 401.7,314.7 404.5,314.7 407.4,314.7 410.3,314.7 413.2,314.7 416.0,314.7 418.9,314.7 421.8,314.7 424.7,314.7 427.5,314.7 429.0,314.7 429.0,314.7 431.9,314.7 434.8,314.7 437.7,314.7 440.6,314.7 443.4,314.7 446.3,314.7 449.2,314.7 452.1,314.7 454.9,314.7 457.8,314.7 460.7,314.7 463.6,314.7 466.4,314.7 469.3,314.7 472.2,314.7 475.1,314.7 478.0,314.7 480.8,314.7 483.7,314.7 486.6,314.7 489.5,314.7 492.4,314.7 495.2,314.7 498.1,314.7 501.0,314.7 503.9,314.7 506.7,314.7 509.6,314.7 512.5,314.7 515.3,314.7 515.5,314.7 518.4,314.7 521.2,314.7 524.1,314.7 527.0,314.7 529.9,314.7 532.7,314.7 535.6,314.7 538.5,314.7 541.4,314.7 544.2,314.7 547.1,314.7 550.0,314.7 552.9,314.7 555.7,314.7 558.6,314.7 561.5,314.7 564.4,314.7 567.2,314.7 570.1,314.7 573.0,314.7 575.8,314.7 575.9,314.7 578.8,314.7 581.7,314.7 584.5,314.7 587.4,314.7 590.3,314.7 593.2,314.7 596.0,314.7 598.9,314.7 601.8,314.7 604.7,314.7 607.6,314.7 610.4,314.7 613.3,314.7 616.2,314.7 619.1,314.7 621.9,314.7 624.8,314.7 627.7,314.7 630.6,314.7 633.5,314.7 636.3,314.7 639.2,314.7 642.1,314.7 645.0,314.7 647.9,314.7 650.7,314.7 653.6,314.7 656.5,314.7 657.8,314.7 658.0,314.7 660.9,314.7 663.7,314.7 666.6,314.7 669.5,314.7 672.4,314.7 675.2,314.7 678.1,314.7 681.0,314.7 683.9,314.7 686.7,314.7 689.6,314.7 692.5,314.7 695.4,314.7 698.3,314.7 701.1,314.7 704.0,314.7 706.9,314.7 709.7,314.7 709.8,314.7 712.7,314.7 715.6,314.7 718.4,314.7 721.3,314.7 724.2,314.7 727.1,314.7 730.0,314.7 732.8,314.7 735.7,314.7 738.6,314.7 741.5,314.7 744.3,314.7 747.2,314.7 750.1,314.7 753.0,314.7 754.4,314.7 754.5,314.7 757.4,314.7 760.2,332.4 763.1,332.4 766.0,332.4 768.9,332.4 771.7,332.4 774.6,332.4 777.5,332.4 780.4,332.4 783.2,332.4 786.1,332.4 789.0,332.4 791.9,332.4 794.8,332.4 797.6,332.4 800.5,332.4 803.4,332.4 806.2,332.4 806.2,332.4 809.1,332.4 812.0,332.4 814.9,332.4 817.7,332.4 820.6,332.4 823.5,332.4 826.4,332.4 829.2,332.4 832.1,332.4 835.0,332.4 837.9,332.4 840.7,332.4 843.6,332.4 846.5,332.4 849.4,332.4 852.3,332.4 855.1,332.4 858.0,332.4 860.9,332.4 863.8,332.4 866.6,332.4 869.5,332.4 872.4,332.4 875.2,332.4 875.2,332.4 878.1,332.4 881.0,332.4 883.9,332.4 886.7,332.4 889.6,332.4 892.5,332.4 895.4,332.4 898.3,332.4 901.1,332.4 904.0,314.7 906.9,314.7 909.8,314.7 912.6,314.7 915.5,314.7 918.4,314.7 921.2,314.7 921.4,314.7 924.3,314.7 927.2,314.7 930.1,314.7 933.0,314.7 935.8,314.7"/>
<polyline fill="none" stroke="#2563eb" stroke-width="2" points="72.0,381.1 74.9,381.1 77.8,381.1 80.6,381.1 83.5,381.1 86.4,381.1 89.3,381.1 92.1,381.1 95.0,381.1 97.9,381.1 100.8,381.1 103.6,381.1 106.5,381.1 109.4,381.1 112.3,381.1 115.2,381.1 118.0,381.1 120.9,381.1 123.8,381.1 126.7,381.1 129.5,381.1 132.4,381.1 135.3,381.1 138.2,381.1 141.0,381.1 143.9,381.1 146.8,381.1 149.7,381.1 152.5,381.1 152.5,381.1 155.4,381.1 158.3,381.1 161.1,381.1 164.0,381.1 166.9,381.1 169.8,381.1 172.6,381.1 175.5,381.1 178.4,381.1 181.3,381.1 182.7,381.1 182.7,381.1 185.6,366.9 188.4,352.8 191.3,331.6 194.2,317.5 197.1,303.4 200.0,289.3 202.9,275.2 205.7,261.1 208.6,254.0 211.5,254.0 214.4,331.6 217.3,317.5 218.6,303.4 218.9,289.3 221.8,275.2 224.6,261.1 227.5,254.0 230.4,254.0 233.3,296.4 236.2,331.6 239.0,345.8 241.9,352.8 244.8,366.9 247.7,366.9 250.6,352.8 253.4,366.9 256.2,366.9 256.4,366.9 259.3,366.9 262.2,366.9 265.0,366.9 267.9,366.9 270.8,366.9 273.7,366.9 276.5,366.9 279.4,366.9 282.3,366.9 285.2,366.9 288.1,366.9 290.9,366.9 293.8,366.9 296.7,366.9 299.6,366.9 302.4,366.9 305.3,366.9 308.2,366.9 311.1,366.9 314.0,366.9 316.8,366.9 319.7,366.9 322.6,366.9 324.0,366.9 324.0,352.8 326.8,366.9 329.7,366.9 332.6,366.9 335.5,366.9 338.3,366.9 341.2,366.9 344.1,366.9 347.0,366.9 349.9,366.9 352.7,366.9 355.6,366.9 358.5,366.9 361.4,366.9 362.8,366.9 362.8,352.8 365.7,331.6 368.5,317.5 371.4,303.4 374.3,289.3 377.2,275.2 380.1,261.1 383.0,254.0 385.9,254.0 388.7,254.0 391.6,296.4 393.0,282.2 393.1,268.1 396.0,331.6 398.9,317.5 401.8,303.4 404.7,289.3 407.5,275.2 410.4,261.1 413.3,254.0 416.2,331.6 419.1,317.5 421.9,303.4 424.8,289.3 427.7,275.2 429.1,261.1 429.2,254.0 432.1,254.0 435.0,296.4 437.8,282.2 440.7,268.1 443.6,254.0 446.5,254.0 449.4,254.0 452.2,254.0 455.1,254.0 458.0,254.0 460.9,254.0 463.8,254.0 466.6,254.0 469.5,254.0 472.4,254.0 475.3,254.0 478.2,254.0 481.0,254.0 483.9,254.0 486.8,254.0 489.7,254.0 492.5,254.0 495.4,254.0 498.3,254.0 501.2,254.0 504.1,254.0 506.9,254.0 509.8,254.0 512.7,254.0 515.4,254.0 515.6,254.0 518.5,254.0 521.4,254.0 524.3,254.0 527.1,268.1 530.0,331.6 532.9,345.8 535.8,352.8 538.7,366.9 541.5,366.9 544.4,352.8 547.3,366.9 550.2,366.9 553.1,366.9 555.9,366.9 558.8,366.9 561.7,366.9 564.6,366.9 567.4,366.9 570.3,366.9 573.2,366.9 576.0,366.9 576.1,366.9 579.0,352.8 581.9,338.7 584.7,324.6 587.6,310.5 590.5,296.4 593.4,282.2 596.3,268.1 599.1,254.0 602.0,296.4 604.9,331.6 607.8,317.5 610.7,303.4 613.6,289.3 616.5,275.2 619.4,261.1 622.2,254.0 625.1,254.0 628.0,254.0 630.9,296.4 633.8,331.6 636.7,317.5 639.5,303.4 642.4,289.3 645.3,275.2 648.2,261.1 651.1,254.0 654.0,296.4 656.9,282.2 658.0,268.1 658.1,254.0 661.0,254.0 663.9,254.0 666.8,254.0 669.6,254.0 672.5,254.0 675.4,254.0 678.3,254.0 681.2,254.0 684.0,254.0 686.9,254.0 689.8,254.0 692.7,254.0 695.5,254.0 698.4,254.0 701.3,254.0 704.2,254.0 707.1,254.0 709.9,268.1 709.9,282.2 712.8,352.8 715.7,366.9 718.6,366.9 721.5,366.9 724.3,366.9 727.2,366.9 730.1,366.9 733.0,366.9 735.8,366.9 738.7,366.9 741.6,366.9 744.5,366.9 747.4,366.9 750.2,366.9 753.1,366.9 754.5,366.9 754.6,366.9 757.5,366.9 760.4,366.9 763.3,366.9 766.2,366.9 769.0,366.9 771.9,366.9 774.8,366.9 777.7,366.9 780.5,366.9 783.4,366.9 786.3,366.9 789.2,366.9 792.1,366.9 794.9,366.9 797.8,366.9 800.7,366.9 803.6,366.9 806.4,366.9 806.4,366.9 809.3,366.9 812.2,366.9 815.0,366.9 817.9,366.9 820.8,366.9 823.7,366.9 826.5,366.9 829.4,366.9 832.3,366.9 835.2,366.9 838.0,366.9 840.9,366.9 843.8,366.9 846.7,366.9 849.6,366.9 852.4,366.9 855.3,366.9 858.2,366.9 861.1,366.9 863.9,366.9 866.8,366.9 869.7,366.9 872.6,366.9 875.4,366.9 875.4,366.9 878.3,352.8 881.2,338.7 884.0,324.6 886.9,310.5 889.8,296.4 892.7,282.2 895.6,268.1 898.5,254.0 901.3,331.6 904.2,317.5 907.1,303.4 910.0,289.3 912.9,275.2 915.8,261.1 918.6,254.0 921.4,331.6 921.6,317.5 924.5,303.4 927.4,289.3 930.3,275.2 933.2,261.1 936.0,254.0"/>
<line x1="72" y1="656" x2="936" y2="656" stroke="#ddd"/>
<line x1="72" y1="476" x2="72" y2="656" stroke="#ddd"/>
<text x="18" y="492" font-family="sans-serif" font-size="13" font-weight="700">RPM</text>
<text x="24" y="656" font-family="sans-serif" font-size="11" fill="#777">1893</text>
<text x="24" y="486" font-family="sans-serif" font-size="11" fill="#777">9530</text>
<polyline fill="none" stroke="#111827" stroke-width="2" points="72.0,652.4 74.9,591.0 77.8,587.2 80.6,587.0 83.5,586.4 86.4,589.7 89.3,582.9 92.1,586.3 95.0,584.3 97.9,589.3 100.8,576.5 103.6,580.1 106.5,582.6 109.4,577.0 112.3,588.5 115.1,591.6 118.0,578.3 120.9,591.0 123.8,591.1 126.6,589.2 129.5,587.2 132.4,579.1 135.3,582.1 138.1,588.6 141.0,579.0 143.9,579.2 146.8,579.9 149.7,588.8 152.5,586.3 152.5,586.3 155.4,582.7 158.2,586.3 161.1,577.1 164.0,598.5 166.9,583.1 169.7,587.3 172.6,588.6 175.5,586.2 178.4,582.9 181.3,577.0 182.7,590.3 182.7,590.3 185.6,580.6 188.4,578.5 191.3,579.5 194.2,559.8 197.1,563.4 199.9,562.7 202.8,560.6 205.7,564.7 208.6,560.9 211.5,565.7 214.3,558.9 217.2,558.8 218.6,556.2 218.7,558.7 221.6,560.5 224.5,560.8 227.4,562.6 230.2,561.1 233.1,559.6 236.0,564.3 238.9,560.9 241.7,560.8 244.6,559.0 247.5,551.9 250.4,557.1 253.3,557.6 256.1,563.5 256.3,564.4 259.1,558.6 262.0,563.8 264.9,563.2 267.8,560.6 270.6,556.4 273.5,565.9 276.4,581.2 279.3,583.1 282.1,580.6 285.0,583.4 287.9,581.4 290.8,576.8 293.7,578.9 296.5,596.8 299.4,583.1 302.3,582.2 305.2,581.6 308.0,576.9 310.9,580.9 313.8,579.7 316.7,578.0 319.5,582.3 322.4,582.8 323.8,584.1 323.8,584.1 326.7,585.8 329.6,590.1 332.4,582.0 335.3,576.8 338.2,586.0 341.1,577.4 344.0,590.3 346.8,589.9 349.7,584.6 352.6,577.6 355.5,590.1 358.3,590.6 361.2,590.2 362.6,590.2 362.6,590.2 365.5,588.5 368.4,590.6 371.3,583.9 374.1,563.0 377.0,558.8 379.9,559.8 382.8,551.1 385.6,556.3 388.5,562.7 391.4,562.1 392.8,559.7 393.0,567.6 395.9,551.8 398.8,554.8 401.7,564.9 404.5,564.5 407.4,555.1 410.3,560.7 413.2,562.1 416.0,560.0 418.9,557.2 421.8,557.1 424.7,564.7 427.5,558.6 429.0,560.0 429.0,558.8 431.9,560.9 434.8,559.1 437.7,559.6 440.6,558.1 443.4,559.9 446.3,556.6 449.2,566.9 452.1,560.0 454.9,559.3 457.8,559.7 460.7,556.7 463.6,556.3 466.4,560.0 469.3,562.7 472.2,561.7 475.1,556.3 478.0,559.3 480.8,555.1 483.7,556.4 486.6,557.9 489.5,559.0 492.4,562.7 495.2,559.7 498.1,558.8 501.0,563.2 503.9,556.2 506.7,560.8 509.6,564.2 512.5,557.6 515.3,561.0 515.5,556.5 518.4,560.1 521.2,562.7 524.1,556.5 527.0,560.4 529.9,561.2 532.7,560.0 535.6,558.9 538.5,562.3 541.4,560.2 544.2,559.4 547.1,556.3 550.0,556.9 552.9,560.3 555.7,558.9 558.6,561.8 561.5,557.6 564.4,558.2 567.2,558.6 570.1,556.6 573.0,562.6 575.8,559.7 575.9,560.1 578.8,554.2 581.7,557.1 584.5,559.1 587.4,557.1 590.3,559.9 593.2,556.4 596.0,558.1 598.9,558.9 601.8,562.1 604.7,554.3 607.6,557.6 610.4,559.5 613.3,562.2 616.2,563.7 619.1,561.7 621.9,559.8 624.8,556.7 627.7,556.7 630.6,556.7 633.5,556.7 636.3,557.5 639.2,562.5 642.1,557.8 645.0,556.7 647.9,563.9 650.7,558.1 653.6,555.5 656.5,564.0 657.8,555.5 658.0,558.2 660.9,564.7 663.7,561.4 666.6,559.6 669.5,562.6 672.4,556.6 675.2,559.7 678.1,556.7 681.0,564.3 683.9,562.9 686.7,554.3 689.6,557.1 692.5,563.5 695.4,557.8 698.3,556.5 701.1,562.6 704.0,559.8 706.9,556.7 709.7,560.0 709.8,560.0 712.7,556.7 715.6,563.9 718.4,561.8 721.3,560.0 724.2,562.0 727.1,556.7 730.0,559.0 732.8,558.1 735.7,560.9 738.6,559.8 741.5,563.8 744.3,555.6 747.2,564.3 750.1,557.2 753.0,560.3 754.4,562.8 754.5,561.9 757.4,563.5 760.2,591.2 763.1,585.2 766.0,579.8 768.9,581.5 771.7,584.0 774.6,582.4 777.5,579.3 780.4,583.4 783.2,579.7 786.1,579.8 789.0,587.6 791.9,585.7 794.8,579.0 797.6,581.6 800.5,584.5 803.4,579.7 806.2,576.5 806.2,576.5 809.1,577.1 812.0,579.8 814.9,582.7 817.7,576.5 820.6,590.8 823.5,580.5 826.4,578.1 829.2,578.2 832.1,585.4 835.0,587.1 837.9,576.1 840.7,575.5 843.6,575.2 846.5,589.3 849.4,581.9 852.3,584.5 855.1,589.4 858.0,579.2 860.9,591.0 863.8,591.0 866.6,584.0 869.5,579.1 872.4,588.0 875.2,586.3 875.2,586.3 878.1,583.5 881.0,584.5 883.9,587.6 886.7,584.7 889.6,582.0 892.5,579.9 895.4,584.7 898.3,577.9 901.1,587.7 904.0,582.0 906.9,567.9 909.8,558.5 912.6,564.9 915.5,565.6 918.4,562.9 921.2,562.0 921.4,567.0 924.3,557.6 927.2,561.3 930.1,561.4 933.0,564.2 935.8,563.4"/>
<polyline fill="none" stroke="#047857" stroke-width="2" points="72.0,584.4 74.9,644.2 77.8,648.4 80.6,649.5 83.5,646.2 86.4,648.3 89.3,646.6 92.1,648.6 95.0,650.6 97.9,650.4 100.8,653.2 103.6,647.7 106.5,648.8 109.4,652.1 112.3,649.2 115.2,651.3 118.0,655.4 120.9,648.4 123.8,652.9 126.7,654.8 129.5,656.0 132.4,651.9 135.3,651.9 138.2,651.1 141.0,650.5 143.9,652.0 146.8,653.8 149.7,653.2 152.5,650.3 152.5,650.3 155.4,653.2 158.3,651.6 161.1,651.6 164.0,652.3 166.9,652.4 169.8,652.4 172.6,652.4 175.5,653.9 178.4,652.4 181.3,652.7 182.7,652.5 182.7,652.5 185.6,652.6 188.4,631.7 191.3,605.8 194.2,592.9 197.1,564.3 200.0,556.7 202.9,539.6 205.7,512.9 208.6,510.2 211.5,505.5 214.4,568.6 217.3,583.7 218.6,570.5 218.9,568.6 221.8,538.4 224.6,515.8 227.5,503.2 230.4,501.7 233.3,541.1 236.2,586.1 239.0,578.5 241.9,589.7 244.8,613.0 247.7,625.7 250.6,627.6 253.4,607.5 256.2,624.3 256.4,626.5 259.3,625.4 262.2,627.9 265.0,630.5 267.9,630.8 270.8,628.7 273.7,631.5 276.5,630.6 279.4,628.5 282.3,631.1 285.2,624.4 288.1,631.8 290.9,632.1 293.8,630.0 296.7,632.5 299.6,632.3 302.4,630.4 305.3,633.7 308.2,634.5 311.1,630.6 314.0,630.5 316.8,633.1 319.7,628.6 322.6,633.4 324.0,632.9 324.0,632.9 326.8,614.2 329.7,632.0 332.6,629.6 335.5,633.2 338.3,631.2 341.2,633.3 344.1,631.3 347.0,631.3 349.9,631.2 352.7,631.4 355.6,631.2 358.5,631.5 361.4,632.5 362.8,631.4 362.8,631.4 365.7,614.0 368.5,585.1 371.4,571.2 374.3,546.5 377.2,541.5 380.1,524.5 383.0,495.1 385.9,497.1 388.7,509.5 391.6,541.6 393.0,539.4 393.1,542.6 396.0,594.0 398.9,581.4 401.8,566.3 404.7,547.2 407.5,540.8 410.4,520.2 413.3,496.3 416.2,571.6 419.1,578.2 421.9,569.9 424.8,547.4 427.7,526.3 429.1,519.2 429.2,517.9 432.1,496.4 435.0,516.4 437.8,540.3 440.7,516.4 443.6,503.0 446.5,503.3 449.4,493.4 452.2,500.5 455.1,489.9 458.0,495.0 460.9,488.7 463.8,487.8 466.6,487.6 469.5,494.3 472.4,493.3 475.3,493.6 478.2,498.9 481.0,499.6 483.9,477.9 486.8,485.1 489.7,498.8 492.5,501.5 495.4,478.1 498.3,500.9 501.2,476.6 504.1,491.2 506.9,491.1 509.8,500.5 512.7,500.4 515.4,490.8 515.6,476.0 518.5,477.3 521.4,480.4 524.3,490.9 527.1,483.2 530.0,561.4 532.9,570.3 535.8,590.9 538.7,601.5 541.5,619.5 544.4,618.9 547.3,606.3 550.2,622.6 553.1,625.5 555.9,626.8 558.8,628.8 561.7,625.9 564.6,631.3 567.4,629.6 570.3,627.3 573.2,627.3 576.0,624.2 576.1,625.3 579.0,633.9 581.9,611.5 584.7,592.3 587.6,574.0 590.5,557.9 593.4,541.9 596.3,534.1 599.1,503.2 602.0,554.6 604.9,579.2 607.8,582.5 610.7,560.9 613.6,550.2 616.5,539.9 619.4,520.4 622.2,501.9 625.1,498.1 628.0,493.8 630.9,543.6 633.8,585.1 636.7,572.5 639.5,558.8 642.4,549.3 645.3,530.0 648.2,508.3 651.1,509.7 654.0,551.0 656.9,537.4 658.0,519.8 658.1,524.4 661.0,484.2 663.9,505.9 666.8,493.0 669.6,502.4 672.5,488.7 675.4,494.8 678.3,488.1 681.2,488.0 684.0,497.6 686.9,493.6 689.8,486.8 692.7,493.2 695.5,486.3 698.4,493.2 701.3,492.9 704.2,492.4 707.1,498.1 709.9,495.2 709.9,495.2 712.8,575.6 715.7,596.1 718.6,621.1 721.5,622.2 724.3,626.3 727.2,623.2 730.1,623.5 733.0,623.2 735.8,625.7 738.7,627.1 741.6,626.5 744.5,624.5 747.4,628.1 750.2,624.3 753.1,631.7 754.5,634.2 754.6,633.9 757.5,622.3 760.4,627.8 763.3,628.2 766.2,628.7 769.0,631.0 771.9,628.9 774.8,631.3 777.7,631.6 780.5,631.5 783.4,628.7 786.3,629.6 789.2,630.0 792.1,632.4 794.9,630.3 797.8,632.6 800.7,632.6 803.6,630.4 806.4,632.8 806.4,632.8 809.3,630.5 812.2,630.7 815.0,633.0 817.9,631.0 820.8,633.3 823.7,633.3 826.5,634.6 829.4,633.6 832.3,633.5 835.2,633.5 838.0,633.7 840.9,631.4 843.8,631.5 846.7,634.1 849.6,634.2 852.4,633.8 855.3,631.8 858.2,631.7 861.1,631.9 863.9,633.9 866.8,634.0 869.7,632.1 872.6,632.1 875.4,634.1 875.4,634.1 878.3,634.1 881.2,614.7 884.0,594.4 886.9,580.6 889.8,556.4 892.7,545.6 895.6,528.5 898.5,513.3 901.3,557.7 904.2,587.7 907.1,563.6 910.0,547.4 912.9,530.8 915.8,509.2 918.6,502.6 921.4,587.8 921.6,582.9 924.5,568.3 927.4,551.4 930.3,534.9 933.2,517.5 936.0,504.3"/>
</svg>
